<svg width="114" height="120" viewBox="0 0 114 120" xmlns="http://www.w3.org/2000/svg"><title>808-logo-square</title><g fill="none" fill-rule="evenodd"><path id="eoe-logo-square" d="M16 54h2c6.075 0 11-4.925 11-11s-4.925-11-11-11c-.33-.01-.664 0-1 0-.336 0-.67-.01-1-.03C9.925 32 5 36.924 5 43c0 6.075 4.925 11 11 11zm2 5h-2C7.163 59 0 51.837 0 43c0-5.893 3.186-11.042 7.93-13.818C3.742 26.296 1 21.468 1 16 1 7.163 8.163 0 17 0s16 7.163 16 16c0 5.468-2.743 10.296-6.93 13.182C30.815 31.958 34 37.107 34 43c0 8.837-7.163 16-16 16zm78-5h2c6.075 0 11-4.925 11-11s-4.925-11-11-11c-.33-.01-.664 0-1 0-.336 0-.67-.01-1-.03C89.925 32 85 36.924 85 43c0 6.075 4.925 11 11 11zm2 5h-2c-8.837 0-16-7.163-16-16 0-5.893 3.186-11.042 7.93-13.818C83.742 26.296 81 21.468 81 16c0-8.837 7.163-16 16-16s16 7.163 16 16c0 5.468-2.743 10.296-6.93 13.182C110.815 31.958 114 37.107 114 43c0 8.837-7.163 16-16 16zM17 27c-6.075 0-11-4.925-11-11S10.925 5 17 5s11 4.925 11 11-4.925 11-11 11zm24-11c0-8.837 7.163-16 16-16s16 7.163 16 16v27c0 8.837-7.163 16-16 16s-16-7.163-16-16V16zm5 0v27c0 6.075 4.925 11 11 11s11-4.925 11-11V16c0-6.075-4.925-11-11-11S46 9.925 46 16zm51 11c6.075 0 11-4.925 11-11S103.075 5 97 5 86 9.925 86 16s4.925 11 11 11z" fill="#FFF"/><text fill="#FFF" font-family="BebasNeue, Bebas Neue" font-size="36" letter-spacing="7"><tspan x=".638" y="106">State</tspan> <tspan x="99.898" y="106">s</tspan></text><path d="M1 69h112M1 119h112" stroke="#FFF" stroke-width="2"/></g></svg>
