<svg width="231" height="32" xmlns="http://www.w3.org/2000/svg"><path d="M32.5 0a9.5 9.5 0 019.496 9.23L42 9.5v13a9.5 9.5 0 01-18.996.27L23 22.5v-13A9.5 9.5 0 0132.5 0zM10 0a9 9 0 016.029 15.684l-.227.197-.146.119.146.119a8.989 8.989 0 013.178 6.272l.015.31L19 23a9 9 0 01-8.735 8.996L10 32H9a9 9 0 01-6.029-15.684l.227-.197.145-.119-.145-.119A8.989 8.989 0 01.02 9.61L.005 9.3 0 9A9 9 0 018.735.004L9 0h1zm46 0a9 9 0 016.029 15.684l-.227.197-.146.119.146.119a8.989 8.989 0 013.178 6.272l.015.31L65 23a9 9 0 01-8.735 8.996L56 32h-1a9 9 0 01-6.029-15.684l.227-.197.145-.119-.145-.119A8.989 8.989 0 0146.02 9.61l-.015-.31L46 9A9 9 0 0154.735.004L55 0h1zm55.46 8.898c1.42 0 2.75.227 3.99.682a8.94 8.94 0 013.254 2.06c.928.918 1.654 2.068 2.18 3.45.482 1.268.743 2.739.783 4.412l.005.461v1.648h-14.915l.007.328c.037.97.24 1.817.611 2.541a4.425 4.425 0 001.748 1.86c.752.437 1.645.654 2.677.654.682 0 1.307-.097 1.875-.29a3.979 3.979 0 001.463-.867c.35-.33.625-.722.828-1.18l.095-.234 5.455.398-.077.33a7.515 7.515 0 01-1.656 3.157c-.871.99-1.99 1.757-3.36 2.301-1.368.545-2.942.817-4.722.817-2.235 0-4.158-.457-5.767-1.37-1.61-.914-2.848-2.212-3.715-3.893-.866-1.68-1.3-3.672-1.3-5.973 0-2.244.436-4.214 1.307-5.909.871-1.695 2.095-3.016 3.672-3.963 1.577-.947 3.43-1.42 5.561-1.42zm23.502 0c1.875 0 3.523.34 4.943 1.022 1.42.682 2.545 1.643 3.374 2.884.765 1.145 1.217 2.472 1.356 3.98l.029.38h-5.583l-.048-.265c-.196-.959-.61-1.749-1.244-2.37-.692-.676-1.605-1.015-2.742-1.015-.947 0-1.778.258-2.493.774-.715.516-1.271 1.265-1.669 2.245-.397.98-.596 2.166-.596 3.558 0 1.41.196 2.611.59 3.6.392.99.946 1.746 1.661 2.266.715.521 1.55.782 2.507.782.71 0 1.345-.142 1.904-.427a3.683 3.683 0 001.392-1.242c.323-.477.552-1.042.686-1.696l.052-.286h5.583l-.03.377c-.147 1.493-.591 2.819-1.334 3.977-.805 1.254-1.91 2.232-3.317 2.933-1.406.7-3.07 1.051-4.993 1.051-2.234 0-4.15-.476-5.745-1.427-1.596-.952-2.82-2.276-3.672-3.97-.853-1.696-1.279-3.646-1.279-5.853 0-2.225.434-4.185 1.3-5.88.867-1.696 2.095-3.019 3.686-3.97 1.591-.952 3.485-1.428 5.682-1.428zm22.952 0c2.188 0 4.082.47 5.682 1.413 1.6.942 2.834 2.259 3.7 3.949.867 1.69 1.3 3.662 1.3 5.916 0 2.244-.433 4.21-1.3 5.895-.866 1.686-2.1 3-3.7 3.942-1.6.942-3.494 1.413-5.682 1.413-2.197 0-4.093-.471-5.688-1.413-1.596-.942-2.83-2.256-3.7-3.942-.872-1.686-1.308-3.65-1.308-5.895 0-2.254.436-4.226 1.307-5.916.871-1.69 2.105-3.007 3.7-3.949 1.596-.942 3.492-1.413 5.69-1.413zm62.638 0c2.718 0 4.86.575 6.428 1.726 1.48 1.086 2.388 2.542 2.724 4.368l.053.326-5.398.37-.06-.23a3.197 3.197 0 00-.565-1.056 3.261 3.261 0 00-1.243-.938c-.516-.232-1.129-.348-1.84-.348-.965 0-1.777.202-2.435.604-.658.403-.983.935-.973 1.598-.01.55.199 1.006.625 1.37.387.332 1.025.607 1.913.825l.274.064 3.92.795.39.085c1.917.44 3.359 1.112 4.327 2.017 1.032.966 1.553 2.235 1.562 3.807-.01 1.42-.428 2.668-1.257 3.743-.829 1.075-1.965 1.91-3.41 2.507-1.443.597-3.108.895-4.992.895-2.85 0-5.123-.596-6.818-1.79-1.61-1.133-2.588-2.664-2.934-4.592l-.05-.308 5.796-.341.053.22c.212.792.637 1.403 1.275 1.832.696.47 1.594.704 2.692.704 1.09 0 1.965-.216 2.628-.647.663-.43 1-.977 1.009-1.64-.01-.56-.244-1.02-.704-1.385-.413-.328-1.028-.59-1.844-.783l-.28-.062-3.763-.753-.369-.079c-1.936-.435-3.39-1.148-4.361-2.137-1.033-1.051-1.549-2.387-1.549-4.006 0-1.392.379-2.592 1.137-3.6.757-1.01 1.825-1.788 3.203-2.337 1.378-.55 2.99-.824 4.836-.824zM207.21 1.909V31h-5.81v-3.48h-.27l-.125.252a7.978 7.978 0 01-1.061 1.516c-.516.592-1.184 1.085-2.003 1.478-.819.393-1.825.59-3.018.59-1.667 0-3.17-.432-4.51-1.294-1.34-.861-2.4-2.128-3.182-3.8-.781-1.67-1.172-3.718-1.172-6.143 0-2.49.403-4.566 1.207-6.228.805-1.662 1.88-2.91 3.225-3.743a8.25 8.25 0 014.432-1.25c1.221 0 2.244.208 3.068.625.824.416 1.487.928 1.989 1.534.43.52.773 1.032 1.03 1.537l.12.253h.185V1.909h5.895zm-23.882 6.96c.303 0 .63.017.98.05.263.025.5.06.709.103l.2.046v5.27l-.12-.036a7.91 7.91 0 00-1.023-.191c-.497-.066-.959-.1-1.385-.1-.89 0-1.688.194-2.393.583a4.335 4.335 0 00-1.67 1.612c-.361.61-.563 1.3-.603 2.072l-.007.293V31h-5.895V9.182h5.71v3.778h.227l.097-.302c.406-1.187 1.043-2.102 1.913-2.745.942-.696 2.03-1.044 3.26-1.044zM87.963 1.91l.437.005c2.019.049 3.753.438 5.202 1.167 1.553.781 2.735 1.882 3.544 3.303.81 1.42 1.215 3.087 1.215 5 0 1.794-.359 3.353-1.077 4.677l-.159.28-.17.272c-.757 1.161-1.795 2.08-3.114 2.758l-.31.152-.317.142L99.412 31h-6.648l-5.547-10.369h-4.624V31h-6.008V1.91h11.378zM56 2h-1a7 7 0 00-3.624 12.99l.233.136 1.576.874-1.576.874a7 7 0 003.15 13.122L55 30h1a7 7 0 003.624-12.99l-.233-.136L57.815 16l1.576-.874a7 7 0 00-3.15-13.122L56 2zM10 2H9a7 7 0 00-3.624 12.99l.233.136L7.185 16l-1.576.874a7 7 0 003.15 13.122L9 30h1a7 7 0 003.624-12.99l-.233-.136L11.815 16l1.576-.874a7 7 0 00-3.15-13.122L10 2zm22.5 0a7.5 7.5 0 00-7.496 7.257L25 9.5v13a7.5 7.5 0 0014.996.243L40 22.5v-13A7.5 7.5 0 0032.5 2zm-23 16a4.5 4.5 0 110 9 4.5 4.5 0 010-9zm23-13a4.5 4.5 0 014.495 4.288L37 9.5v13.027l-.007.219a4.5 4.5 0 01-8.988-.034L28 22.5V9.473l.007-.219A4.5 4.5 0 0132.5 5zm23 13a4.5 4.5 0 110 9 4.5 4.5 0 010-9zm102.443-4.571c-1.042 0-1.915.294-2.62.88-.706.588-1.234 1.386-1.585 2.394-.35 1.009-.525 2.152-.525 3.43 0 1.279.175 2.422.525 3.43.35 1.01.879 1.807 1.584 2.394.706.588 1.58.881 2.62.881 1.024 0 1.88-.293 2.572-.88.691-.588 1.212-1.386 1.562-2.394.35-1.009.526-2.152.526-3.43 0-1.279-.175-2.422-.526-3.43-.35-1.01-.87-1.807-1.562-2.394-.691-.587-1.548-.881-2.571-.881zm38.826.185c-1.022 0-1.882.274-2.578.823-.696.55-1.221 1.31-1.577 2.28-.355.971-.532 2.096-.532 3.374 0 1.288.18 2.424.54 3.409.36.985.887 1.754 1.583 2.308.696.554 1.551.831 2.564.831.985 0 1.826-.272 2.522-.817.696-.544 1.228-1.306 1.598-2.286.369-.98.554-2.129.554-3.445 0-1.316-.183-2.46-.547-3.43-.365-.971-.895-1.722-1.591-2.252-.696-.53-1.541-.795-2.536-.795zM55.5 20a2.5 2.5 0 100 5 2.5 2.5 0 000-5zm-46 0a2.5 2.5 0 100 5 2.5 2.5 0 000-5zm23-13c-1.274 0-2.333.956-2.481 2.175l-.014.16L30 9.5v13a2.5 2.5 0 002.5 2.5c1.274 0 2.333-.956 2.481-2.175l.014-.16L35 22.5v-13A2.5 2.5 0 0032.5 7zm79.059 6.33c-.938 0-1.769.217-2.493.653a4.62 4.62 0 00-1.69 1.74 4.875 4.875 0 00-.583 1.832l-.025.285-.004.078h9.34l-.01-.293c-.045-.772-.239-1.465-.58-2.08a4.187 4.187 0 00-1.597-1.626c-.682-.393-1.468-.59-2.358-.59zM86.855 6.838h-4.261l-.001 8.935h4.29l.352-.005c1.038-.03 1.91-.191 2.617-.485.786-.327 1.373-.817 1.762-1.47.388-.654.582-1.464.582-2.43 0-.984-.194-1.813-.582-2.485-.389-.673-.978-1.184-1.769-1.534-.711-.316-1.59-.49-2.635-.52l-.355-.006zM55.5 5a4.5 4.5 0 110 9 4.5 4.5 0 010-9zm-46 0a4.5 4.5 0 110 9 4.5 4.5 0 010-9zm0 2a2.5 2.5 0 100 5 2.5 2.5 0 000-5zm46 0a2.5 2.5 0 100 5 2.5 2.5 0 000-5z" fill="#F94B00" fill-rule="nonzero"/></svg>