<svg width="171" height="148" viewBox="0 0 171 148" xmlns="http://www.w3.org/2000/svg">
  <title>808 States Logo</title>
  <path d="M70 45c0-8.8366 7.1634-16 16-16s16 7.1634 16 16v27c0 8.8366-7.1634 16-16 16s-16-7.1634-16-16V45zM44 88c-8.8366 0-16-7.1634-16-16 0-5.893 3.1857-11.0417 7.929-13.818C31.7433 55.296 29 50.4683 29 45c0-8.8366 7.1634-16 16-16s16 7.1634 16 16c0 5.4684-2.7434 10.296-6.929 13.182C58.8144 60.9582 62 66.107 62 72c0 8.8366-7.1634 16-16 16h-2zm34-43v27c0 4.4183 3.5817 8 8 8s8-3.5817 8-8V45c0-4.4183-3.5817-8-8-8s-8 3.5817-8 8zM44.25 80.023h1.5c4.5563 0 8.25-3.6936 8.25-8.25 0-4.5563-3.6937-8.25-8.25-8.25-.248-.0077-.498 0-.75 0s-.502-.0077-.75-.023c-4.5563.023-8.25 3.7167-8.25 8.273 0 4.5564 3.6937 8.25 8.25 8.25zM45 53c4.4183 0 8-3.5817 8-8s-3.5817-8-8-8-8 3.5817-8 8 3.5817 8 8 8zm80 35c-8.8366 0-16-7.1634-16-16 0-5.893 3.1857-11.0417 7.929-13.818C112.7433 55.296 110 50.4683 110 45c0-8.8366 7.1634-16 16-16s16 7.1634 16 16c0 5.4684-2.7434 10.296-6.929 13.182C139.8144 60.9582 143 66.107 143 72c0 8.8366-7.1634 16-16 16h-2zm.25-7.977h1.5c4.5563 0 8.25-3.6936 8.25-8.25 0-4.5563-3.6937-8.25-8.25-8.25-.248-.0077-.498 0-.75 0s-.502-.0077-.75-.023c-4.5563.023-8.25 3.7167-8.25 8.273 0 4.5564 3.6937 8.25 8.25 8.25zM126 53c4.4183 0 8-3.5817 8-8s-3.5817-8-8-8-8 3.5817-8 8 3.5817 8 8 8zm-89.8914 65.224c4.676 0 7.364-2.24 7.364-6.188 0-4.62-4.088-5.516-6.944-6.384-1.988-.616-3.164-1.008-3.164-2.128 0-1.036.868-1.456 2.072-1.456 1.204 0 2.548.532 2.548 2.156h4.9c0-4.172-3.332-5.824-7.448-5.824-4.032 0-7 1.932-7 5.656 0 4.032 3.276 5.068 6.02 5.852 2.324.672 4.004.98 4.004 2.492 0 1.092-.868 1.82-2.38 1.82-1.792 0-3.416-.672-3.416-2.8h-4.76c0 5.18 4.284 6.804 8.204 6.804zm17.077-.224h4.872v-15.232h5.572V98.68h-15.96v4.088h5.516V118zm26.8208 0l-1.344-4.284h-6.776L70.5424 118h-5.264l6.804-19.32h6.328l6.832 19.32h-5.236zm-6.86-8.176h4.312l-2.072-6.664h-.14l-2.1 6.664zM92.4074 118h4.872v-15.232h5.572V98.68h-15.96v4.088h5.516V118zm15.9848 0h13.272v-4.116h-8.4v-3.528h7.952v-4.088h-7.952v-3.5h8.4V98.68h-13.272V118zM0 0h171v148H0V0zm8 8v132h155V8H8zm127.241 110.224c-3.92 0-8.204-1.624-8.204-6.804h4.76c0 2.128 1.624 2.8 3.416 2.8 1.512 0 2.38-.728 2.38-1.82 0-1.512-1.68-1.82-4.004-2.492-2.744-.784-6.02-1.82-6.02-5.852 0-3.724 2.968-5.656 7-5.656 4.116 0 7.448 1.652 7.448 5.824h-4.9c0-1.624-1.344-2.156-2.548-2.156s-2.072.42-2.072 1.456c0 1.12 1.176 1.512 3.164 2.128 2.856.868 6.944 1.764 6.944 6.384 0 3.948-2.688 6.188-7.364 6.188z" fill="#000" fill-rule="evenodd" />
</svg>
