<svg width="240" height="59" viewBox="0 0 240 59" xmlns="http://www.w3.org/2000/svg"><title>808-logo-inline</title><path id="eoe-logo-inline" d="M97 54h2c6.075 0 11-4.925 11-11s-4.925-11-11-11c-.33-.01-.664 0-1 0-.336 0-.67-.01-1-.03C90.925 32 86 36.924 86 43c0 6.075 4.925 11 11 11zm0 5c-8.837 0-16-7.163-16-16 0-5.893 3.186-11.042 7.93-13.818C84.742 26.296 82 21.468 82 16c0-8.837 7.163-16 16-16s16 7.163 16 16c0 5.468-2.743 10.296-6.93 13.182C111.815 31.958 115 37.107 115 43c0 8.837-7.163 16-16 16h-2zM42 16c0-8.837 7.163-16 16-16s16 7.163 16 16v27c0 8.837-7.163 16-16 16s-16-7.163-16-16V16zm5 0v27c0 6.075 4.925 11 11 11s11-4.925 11-11V16c0-6.075-4.925-11-11-11S47 9.925 47 16zm51 11c6.075 0 11-4.925 11-11S104.075 5 98 5 87 9.925 87 16s4.925 11 11 11zm30.574-5.152c0-4.032 1.98-6.336 5.832-6.336s5.832 2.304 5.832 6.336v.792h-3.744v-1.044c0-1.8-.72-2.484-1.98-2.484s-1.98.684-1.98 2.484c0 1.836.792 3.204 3.384 5.472 3.312 2.916 4.356 5.004 4.356 7.884 0 4.032-2.016 6.336-5.904 6.336s-5.904-2.304-5.904-6.336v-1.548h3.744v1.8c0 1.8.792 2.448 2.052 2.448s2.052-.648 2.052-2.448c0-1.836-.792-3.204-3.384-5.472-3.312-2.916-4.356-5.004-4.356-7.884zM148.39 19.4v-3.6h12.24v3.6h-4.14V41h-3.96V19.4h-4.14zm28.384-3.6l4.032 25.2h-3.996l-.684-4.572h-4.86L170.582 41h-3.636l4.032-25.2h5.796zm-3.132 4.464l-1.872 12.744h3.816l-1.872-12.744h-.072zm13.48-.864v-3.6h12.24v3.6h-4.14V41h-3.96V19.4h-4.14zm24.928 0v7.02h5.436v3.6h-5.436v7.38h6.84V41h-10.8V15.8h10.8v3.6h-6.84zm15.784 2.448c0-4.032 1.98-6.336 5.832-6.336s5.832 2.304 5.832 6.336v.792h-3.744v-1.044c0-1.8-.72-2.484-1.98-2.484s-1.98.684-1.98 2.484c0 1.836.792 3.204 3.384 5.472 3.312 2.916 4.356 5.004 4.356 7.884 0 4.032-2.016 6.336-5.904 6.336s-5.904-2.304-5.904-6.336v-1.548h3.744v1.8c0 1.8.792 2.448 2.052 2.448s2.052-.648 2.052-2.448c0-1.836-.792-3.204-3.384-5.472-3.312-2.916-4.356-5.004-4.356-7.884zM128 6V3h112v3H128zm0 49v-3h112v3H128zM16 59C7.163 59 0 51.837 0 43c0-5.893 3.186-11.042 7.93-13.818C3.742 26.296 1 21.468 1 16 1 7.163 8.163 0 17 0s16 7.163 16 16c0 5.468-2.743 10.296-6.93 13.182C30.815 31.958 34 37.107 34 43c0 8.837-7.163 16-16 16h-2zm0-5h2c6.075 0 11-4.925 11-11s-4.925-11-11-11c-.33-.01-.664 0-1 0-.336 0-.67-.01-1-.03C9.925 32 5 36.924 5 43c0 6.075 4.925 11 11 11zm1-27c6.075 0 11-4.925 11-11S23.075 5 17 5 6 9.925 6 16s4.925 11 11 11z" fill="#FFF" fill-rule="evenodd"/></svg>
